PathFileType	4	(X/Y/Z)	C:\Users\Basilio\Documents\Thesis Gigler\squatting_fais\c3dfiles\039\SLS_pre_back3\markers_experimental.trc
DataRate	CameraRate	NumFrames	NumMarkers	Units	OrigDataRate	OrigDataStartFrame	OrigNumFrames
200.000000	200.000000	4	64	mm	200.000000	0	2175
Frame#	Time	FHD			LBHD			RBHD			C7			T10			CLAV			LSHO			LUUPA			LMUPA			LDUPA			LLEP			LMEP			LRAD			LUL			LRFIN			RSHO			RUPA1			RMUPA			RDUPA			RLEP			RMEP			RRAD			RUL			RUFIN			LASI			RASI			USACR			LSACR			RSACR			LTHI1			LTHI2			LTHI3			LTHI4			LLFC			LMFC			LTIB1			LTIB2			LTIB3			LTIB4			LLMAL			LMMAL			LHEE			LMT1			LMT2			LMT5			RTHI			RTHI2			RTHI3			RTHI4			RLFC			RMFC			RTIB1			RTIB2			RTIB3			RTIB4			RLMAL			RMMAL			RHEE			RMT1			RMT2			RMT5			*61			*62			*63			
		X1	Y1	Z1	X2	Y2	Z2	X3	Y3	Z3	X4	Y4	Z4	X5	Y5	Z5	X6	Y6	Z6	X7	Y7	Z7	X8	Y8	Z8	X9	Y9	Z9	X10	Y10	Z10	X11	Y11	Z11	X12	Y12	Z12	X13	Y13	Z13	X14	Y14	Z14	X15	Y15	Z15	X16	Y16	Z16	X17	Y17	Z17	X18	Y18	Z18	X19	Y19	Z19	X20	Y20	Z20	X21	Y21	Z21	X22	Y22	Z22	X23	Y23	Z23	X24	Y24	Z24	X25	Y25	Z25	X26	Y26	Z26	X27	Y27	Z27	X28	Y28	Z28	X29	Y29	Z29	X30	Y30	Z30	X31	Y31	Z31	X32	Y32	Z32	X33	Y33	Z33	X34	Y34	Z34	X35	Y35	Z35	X36	Y36	Z36	X37	Y37	Z37	X38	Y38	Z38	X39	Y39	Z39	X40	Y40	Z40	X41	Y41	Z41	X42	Y42	Z42	X43	Y43	Z43	X44	Y44	Z44	X45	Y45	Z45	X46	Y46	Z46	X47	Y47	Z47	X48	Y48	Z48	X49	Y49	Z49	X50	Y50	Z50	X51	Y51	Z51	X52	Y52	Z52	X53	Y53	Z53	X54	Y54	Z54	X55	Y55	Z55	X56	Y56	Z56	X57	Y57	Z57	X58	Y58	Z58	X59	Y59	Z59	X60	Y60	Z60	X61	Y61	Z61	X62	Y62	Z62	X63	Y63	Z63	X64	Y64	Z64	

1	0	-211.0345458984376	1793.29248046875	-802.0535278320315	-315.7709350585938	1752.709106445313	-968.0549926757815	-337.5518493652344	1755.10107421875	-828.4462890625002	-367.5920104980469	1591.032958984375	-903.0013427734377	-365.4517211914063	1277.076538085938	-912.867126464844	-219.3071899414063	1528.134033203125	-896.527770996094	-271.7607116699219	1562.976684570313	-1092.440307617188	-303.0966491699219	1335.889404296875	-1187.750122070313	-256.0980529785157	1321.157104492188	-1177.1591796875	-284.4867553710938	1268.923583984375	-1193.145751953125	-267.4494628906251	1207.319458007813	-1196.915283203125	-313.9661560058594	1189.091674804688	-1131.572998046875	-141.467758178711	952.890319824219	-1129.902954101563	-178.4902038574219	944.374694824219	-1194.726928710938	-97.45376586914065	877.9604492187502	-1141.754272460938	-275.6097106933594	1538.103637695313	-702.6813964843751	-331.2326049804688	1309.478759765625	-632.4390258789064	-285.0398254394532	1291.48681640625	-632.8435058593751	-319.6337585449219	1241.203247070313	-630.8386230468751	-295.7445373535157	1183.663696289063	-627.7528686523439	-329.3919372558594	1167.792236328125	-699.8391723632814	-128.2026519775391	938.019470214844	-670.4995727539064	-187.9454956054688	918.594177246094	-626.2540283203126	-89.91753387451173	858.2197875976565	-640.9804687500001	-185.3377380371094	1097.776489257813	-1024.47509765625	-183.5507354736328	1089.565551757813	-799.654479980469	-369.2686462402344	1151.968383789063	-908.0844726562502	-371.8096618652344	1118.853271484375	-936.2799072265627	-376.1450500488282	1119.688598632813	-878.3594360351565	-281.7231750488282	824.682800292969	-1107.344482421875	-255.3695983886719	744.5062866210939	-1111.9609375	-207.5647277832032	743.8374633789064	-1105.203125	-287.3812866210938	693.6826171875001	-1100.212158203125	-301.8632812500001	570.5525512695314	-1104.7412109375	-264.0357666015626	536.9433593750001	-997.2424316406252	-256.0920715332032	418.6794738769532	-1097.459594726563	-328.4043273925782	383.6376037597657	-1134.069946289063	-286.5481262207032	376.0234680175782	-1122.223876953125	-285.4814147949219	293.3571777343751	-1089.253173828125	-357.3597106933594	128.8786926269532	-1123.560668945313	-332.6958923339844	126.161003112793	-1041.51171875	-423.229461669922	85.69339752197267	-1082.802856445313	-191.1947784423828	56.60009002685548	-1068.901733398438	-199.3485870361329	51.24040603637697	-1111.26171875	-247.0166473388672	31.56637954711915	-1160.127685546875	-241.7734069824219	821.9693603515627	-728.4894409179689	-203.6895294189454	766.7792968750001	-726.4150390625001	-172.0472564697266	771.3967285156252	-733.6343383789064	-232.9874420166016	687.6589355468751	-731.8389892578126	-275.7908325195313	549.0522460937501	-750.0159301757814	-240.6377716064454	530.4536132812501	-863.6301879882815	-260.8087158203126	332.5060424804688	-753.2510375976564	-352.5176391601563	277.7653198242188	-740.5097656250001	-307.8093566894532	263.1108398437501	-740.9730834960939	-295.4668884277344	211.8589477539063	-771.1331787109377	-371.0254211425782	124.3828125	-743.9156494140626	-340.8558959960938	137.3090362548828	-828.5825805664065	-440.5242919921876	100.9882125854492	-793.7059326171877	-215.4110412597657	54.22647094726564	-804.9019165039065	-219.5451965332032	54.32547760009767	-758.9153442382814	-274.5533447265626	35.17912673950196	-707.2759399414064	nan	nan	nan	nan	nan	nan	nan	nan	nan	
2	0.005	-210.869369506836	1793.303344726563	-802.1761474609377	-315.8298339843751	1752.703735351563	-968.1083984375002	-337.5097961425782	1755.115844726563	-828.508972167969	-367.5935363769532	1591.048706054688	-903.0639648437502	-365.3260192871094	1277.11572265625	-912.923278808594	-219.2507629394532	1528.127685546875	-896.5853271484377	-271.7297363281251	1562.959594726563	-1092.551513671875	-303.1505737304688	1335.893432617188	-1187.881103515625	-256.1171875000001	1321.18017578125	-1177.304809570313	-284.5151062011719	1268.927368164063	-1193.2890625	-267.4663696289063	1207.365234375	-1197.092651367188	-313.9921569824219	1189.109008789063	-1131.76416015625	-141.0950164794922	952.5728759765627	-1130.101318359375	-178.5766143798828	944.409118652344	-1195.037963867188	-97.45310211181643	877.9997558593752	-1142.123168945313	-275.5304870605469	1538.099975585938	-702.7390747070314	-331.1520996093751	1309.489379882813	-632.4476928710939	-285.0120239257813	1291.4541015625	-632.8063964843751	-319.5522460937501	1241.220703125	-630.8783569335939	-295.6472473144532	1183.684936523438	-627.7331542968751	-329.2985839843751	1167.771118164063	-699.8713378906251	-128.0847320556641	938.041198730469	-670.4264526367189	-187.8528900146485	918.630065917969	-626.1655883789064	-89.78934478759767	858.255798339844	-640.8774414062501	-185.3912353515625	1097.76708984375	-1024.515747070313	-183.5526275634766	1089.566162109375	-799.680847167969	-369.2336120605469	1151.96630859375	-908.186950683594	-371.7379455566407	1118.824951171875	-936.3230590820315	-376.1369934082032	1119.73095703125	-878.425720214844	-281.7234802246094	824.7288208007815	-1107.381103515625	-255.4440917968751	744.5509033203126	-1111.642211914063	-207.5524902343751	743.8510131835939	-1105.275512695313	-287.4217529296876	693.6898193359376	-1100.283203125	-300.8834228515626	570.0407714843751	-1104.724487304688	-264.0951538085938	536.9678955078126	-997.2569580078127	-256.1172180175782	418.6754150390626	-1097.484252929688	-328.1766662597657	384.3219604492189	-1133.997436523438	-286.6116027832032	376.0068664550782	-1122.248046875	-285.4881896972657	293.3281555175782	-1089.25634765625	-356.7593078613282	128.3036041259766	-1123.598876953125	-332.6505432128907	126.1592788696289	-1041.54443359375	-423.2537231445314	85.68129730224611	-1082.812744140625	-191.1915740966797	56.59789276123048	-1068.902099609375	-199.3169555664063	51.27592086791994	-1111.242431640625	-247.0105133056641	31.57267951965333	-1160.150390625	-241.8110809326172	821.979919433594	-728.5587768554689	-203.6906280517579	766.7557983398439	-726.5388793945314	-172.0262451171875	771.4194335937502	-733.6690673828126	-232.9733276367188	687.6638183593751	-731.8876953125001	-275.7557067871094	549.0796508789064	-750.0618896484376	-240.6250457763672	530.4425048828126	-863.6517333984377	-260.7905883789063	332.5231628417969	-753.2816162109376	-352.5390930175782	277.7839660644532	-740.5317382812501	-307.8560180664063	263.0782470703126	-741.0424804687501	-295.4666137695313	211.8572845458985	-771.1574707031252	-370.9915771484376	124.3724899291992	-743.9461669921876	-340.8741455078126	137.2847595214844	-828.5589599609377	-440.5482788085939	100.9794998168946	-793.7233886718752	-215.4224243164063	54.19463348388673	-804.910827636719	-219.5459442138672	54.33586883544923	-758.9166870117189	-274.5446472167969	35.18351364135743	-707.2472534179689	nan	nan	nan	nan	nan	nan	nan	nan	nan	
3	0.01	-210.8119812011719	1793.333740234375	-802.296081542969	-315.6520996093751	1752.71630859375	-968.1684570312502	-337.4278259277344	1755.151245117188	-828.535339355469	-367.5663452148438	1591.07861328125	-903.1494140625002	-365.2680053710938	1277.116455078125	-913.037048339844	-219.2341918945313	1528.128784179688	-896.617858886719	-271.7055053710938	1562.946533203125	-1092.588745117188	-303.1533813476563	1335.92578125	-1187.987426757813	-256.1308593750001	1321.177856445313	-1177.4580078125	-284.5237121582032	1268.955688476563	-1193.4501953125	-267.5261840820313	1207.38427734375	-1197.293090820313	-314.0386047363282	1189.111083984375	-1131.9248046875	-141.0774536132813	952.5953369140627	-1130.363159179688	-178.6649169921875	944.4561157226565	-1195.33056640625	-97.43804931640628	878.0520019531252	-1142.47705078125	-275.4890136718751	1538.095336914063	-702.7847900390626	-331.0802917480469	1309.504028320313	-632.4703369140626	-284.9695129394532	1291.479370117188	-632.8551635742189	-319.4773559570313	1241.253662109375	-630.9072265625001	-295.5187377929688	1183.733032226563	-627.7545166015626	-329.2025451660157	1167.811767578125	-699.8894042968751	-127.9381637573242	938.0647583007815	-670.2890014648439	-187.7347564697266	918.6655883789065	-626.0799560546876	-89.7375946044922	857.7534790039065	-640.9400024414064	-185.2762298583985	1097.763427734375	-1024.5419921875	-183.4853515625	1089.57763671875	-799.7523193359377	-369.1595458984376	1151.98193359375	-908.2357177734377	-371.6822509765626	1118.858276367188	-936.4539794921877	-376.0910949707032	1119.740112304688	-878.5098876953127	-281.6781311035157	824.7209472656252	-1107.48681640625	-255.4710388183594	744.5523681640626	-1111.752197265625	-207.5546264648438	743.8664550781251	-1105.325317382813	-287.3931579589844	693.6823730468751	-1100.308227539063	-301.8875427246094	570.5593872070314	-1104.809204101563	-264.0795898437501	536.9616088867189	-997.3352661132815	-256.1305541992188	418.6742553710939	-1097.504272460938	-328.1714477539063	384.3251953125001	-1134.008056640625	-286.6078186035157	376.0253295898438	-1122.246826171875	-285.4869689941407	293.3337097167969	-1089.254150390625	-357.3005676269532	128.8772735595703	-1123.606811523438	-332.6662292480469	126.137924194336	-1041.559936523438	-422.9346618652345	86.05666351318361	-1082.742797851563	-191.1328125	56.59967041015626	-1068.888549804688	-199.3269805908204	51.26379013061525	-1111.267578125	-247.0338287353516	31.52729034423829	-1160.110717773438	-241.8035888671876	821.9710083007815	-728.6119995117189	-203.7294464111329	766.8081054687501	-726.5216674804689	-172.0865478515625	771.4187622070315	-733.6845092773439	-232.9579010009766	687.6331787109376	-731.9412841796876	-275.7616271972657	549.0791015625001	-750.0943603515626	-240.5765380859376	530.4236450195314	-863.674255371094	-260.7537231445313	332.5508728027344	-753.2998046875001	-352.5230712890626	277.7709045410157	-740.5398559570314	-307.8186645507813	263.1228637695313	-740.9727172851564	-295.4903259277344	211.8896942138672	-771.1645507812502	-370.9950256347657	124.3782119750977	-743.9238281250001	-340.8626098632813	137.3109436035157	-828.596862792969	-440.5243530273439	100.9883422851563	-793.705993652344	-215.4376220703126	54.23343658447267	-804.9219970703127	-219.5468750000001	54.32364654541017	-758.9118652343751	-274.5679321289063	35.15299606323243	-707.2491455078126	nan	nan	nan	nan	nan	nan	nan	nan	nan	
4	0.015	-210.6549224853516	1793.299438476563	-802.4366455078127	-315.5912780761719	1752.771850585938	-968.247985839844	-337.3379516601563	1755.162841796875	-828.5748291015627	-367.4870605468751	1591.063110351563	-903.2131347656252	-365.2064208984376	1277.09326171875	-913.0791625976565	-219.1638336181641	1528.1494140625	-896.650573730469	-271.6575927734376	1562.965698242188	-1092.678955078125	-303.1646423339844	1335.957885742188	-1188.105224609375	-256.1655578613282	1321.200439453125	-1177.575561523438	-284.5477294921876	1268.996337890625	-1193.597290039063	-267.5166320800782	1207.416870117188	-1197.470581054688	-314.0225830078126	1189.097778320313	-1132.040649414063	-141.1035766601563	952.6050415039065	-1130.594848632813	-178.6315612792969	944.4392089843752	-1195.563720703125	-97.40106964111331	878.110778808594	-1142.79443359375	-275.4062194824219	1538.085327148438	-702.8607788085939	-330.9984130859376	1309.552612304688	-632.5551147460939	-284.8531188964844	1291.516235351563	-632.8784790039064	-319.4110412597657	1241.293579101563	-630.9384765625001	-295.4417114257813	1183.723266601563	-627.8040161132814	-329.1091308593751	1167.79052734375	-699.9217529296876	-127.8295822143555	938.1011352539065	-670.2091064453126	-187.6336822509766	918.6951904296877	-626.0142211914064	-89.49050140380861	858.3386230468752	-640.6653442382814	-185.3114318847657	1097.722900390625	-1024.6298828125	-183.486801147461	1089.546264648438	-799.8421630859377	-369.1093444824219	1151.985107421875	-908.3360595703127	-371.6324462890626	1118.871704101563	-936.5249023437502	-376.0619506835938	1119.732055664063	-878.597351074219	-281.6696777343751	824.7303466796877	-1107.506591796875	-255.4237670898438	744.5402221679689	-1111.824951171875	-207.5274047851563	743.8414306640626	-1105.424560546875	-287.4053344726563	693.6857910156251	-1100.365356445313	-301.8608093261719	570.5404663085939	-1104.881713867188	-264.0969543457032	536.9650268554689	-997.3508911132815	-256.1358032226563	418.6862792968751	-1097.504760742188	-328.1246337890626	384.2996826171876	-1134.005004882813	-286.6078186035157	376.0252990722657	-1122.246826171875	-285.5356750488282	293.3259887695313	-1089.30126953125	-356.7541809082032	128.3000640869141	-1123.62451171875	-332.6640014648438	126.1545333862305	-1041.548095703125	-423.2806701660157	85.69163513183595	-1082.787719726563	-191.1265258789063	56.58644485473634	-1068.895629882813	-199.3458251953126	51.26646041870119	-1111.286010742188	-247.0087585449219	31.54892539978028	-1160.150146484375	-241.7983093261719	821.968200683594	-728.6326904296876	-203.6835174560547	766.7636108398439	-726.6185913085939	-172.0534210205078	771.4477539062502	-733.7421875000001	-232.9561614990235	687.6513671875001	-731.9943237304689	-275.7212829589844	549.0654907226564	-750.1376342773439	-240.6277770996094	530.4309082031251	-863.7564086914065	-260.7601623535157	332.5183410644532	-753.3580932617189	-352.5097656250001	277.7656555175782	-740.5577392578126	-307.8195190429688	263.1211853027344	-740.9761962890626	-295.4780883789063	211.8739166259766	-771.1868286132815	-371.0175170898438	124.3584289550782	-743.9347534179689	-340.8738098144532	137.299301147461	-828.6129150390627	-440.5236816406251	100.9860305786133	-793.7446899414065	-215.4195709228516	54.2084312438965	-804.965270996094	-219.543441772461	54.32971954345705	-758.9094238281251	-274.5763854980469	35.16417694091798	-707.2446899414064	nan	nan	nan	nan	nan	nan	nan	nan	nan	
